<?xml version="1.0" encoding="UTF-8" standalone="no"?>
<svg width="1024" height="1024" viewBox="0 0 1024 1024" xmlns="http://www.w3.org/2000/svg">
  <defs>
    <linearGradient id="gradient" x1="0%" y1="0%" x2="100%" y2="100%">
      <stop offset="0%" style="stop-color:#2196F3;stop-opacity:1" />
      <stop offset="100%" style="stop-color:#1565C0;stop-opacity:1" />
    </linearGradient>
  </defs>
  
  <!-- Background -->
  <rect x="0" y="0" width="1024" height="1024" rx="225" ry="225" fill="url(#gradient)"/>
  
  <!-- Task List Paper -->
  <rect x="212" y="162" width="600" height="700" rx="40" ry="40" fill="#FFFFFF" />
  
  <!-- Task Line 1 with Checkbox -->
  <rect x="262" y="282" width="48" height="48" rx="8" ry="8" stroke="#2196F3" stroke-width="10" fill="none" />
  <rect x="332" y="282" width="430" height="24" rx="8" ry="8" fill="#CCCCCC" />
  <rect x="332" y="312" width="350" height="15" rx="5" ry="5" fill="#EEEEEE" />
  
  <!-- Task Line 2 with Checkbox (Checked) -->
  <rect x="262" y="382" width="48" height="48" rx="8" ry="8" stroke="#2196F3" stroke-width="10" fill="none" />
  <path d="M270,402 L285,417 L300,392" stroke="#2196F3" stroke-width="10" stroke-linecap="round" stroke-linejoin="round" fill="none" />
  <rect x="332" y="382" width="430" height="24" rx="8" ry="8" fill="#CCCCCC" />
  <rect x="332" y="412" width="350" height="15" rx="5" ry="5" fill="#EEEEEE" />
  
  <!-- Task Line 3 with Checkbox -->
  <rect x="262" y="482" width="48" height="48" rx="8" ry="8" stroke="#2196F3" stroke-width="10" fill="none" />
  <rect x="332" y="482" width="430" height="24" rx="8" ry="8" fill="#CCCCCC" />
  <rect x="332" y="512" width="350" height="15" rx="5" ry="5" fill="#EEEEEE" />
  
  <!-- Add Task Button -->
  <circle cx="712" cy="802" r="60" fill="#FF5722" />
  <line x1="712" y1="772" x2="712" y2="832" stroke="#FFFFFF" stroke-width="12" stroke-linecap="round" />
  <line x1="742" y1="802" x2="682" y2="802" stroke="#FFFFFF" stroke-width="12" stroke-linecap="round" />
</svg>